<?xml version="1.0" encoding="UTF-8"?> <svg xmlns="http://www.w3.org/2000/svg" width="8" height="1616" viewBox="0 0 8 1616" fill="none"> <path opacity="0.43" d="M3.31947 1615.21C3.51473 1615.41 3.83132 1615.41 4.02658 1615.21L7.20856 1612.03C7.40382 1611.83 7.40382 1611.52 7.20856 1611.32C7.0133 1611.13 6.69671 1611.13 6.50145 1611.32L3.67303 1614.15L0.844598 1611.32C0.649336 1611.13 0.332754 1611.13 0.137491 1611.32C-0.0577708 1611.52 -0.0577709 1611.83 0.137491 1612.03L3.31947 1615.21ZM3.1731 -2.18557e-08L3.17309 16.1486L4.17309 16.1486L4.1731 2.18557e-08L3.1731 -2.18557e-08ZM3.17309 48.4458L3.17309 80.7429L4.17309 80.7429L4.17309 48.4458L3.17309 48.4458ZM3.17309 113.04L3.17309 145.337L4.17309 145.337L4.17309 113.04L3.17309 113.04ZM3.17309 177.634L3.17309 209.932L4.17309 209.932L4.17309 177.634L3.17309 177.634ZM3.17309 242.229L3.17308 274.526L4.17308 274.526L4.17309 242.229L3.17309 242.229ZM3.17308 306.823L3.17308 339.12L4.17308 339.12L4.17308 306.823L3.17308 306.823ZM3.17308 371.417L3.17308 403.715L4.17308 403.715L4.17308 371.417L3.17308 371.417ZM3.17308 436.012L3.17308 468.309L4.17308 468.309L4.17308 436.012L3.17308 436.012ZM3.17307 500.606L3.17307 532.903L4.17307 532.903L4.17307 500.606L3.17307 500.606ZM3.17307 565.201L3.17307 597.498L4.17307 597.498L4.17307 565.201L3.17307 565.201ZM3.17307 629.795L3.17307 662.092L4.17307 662.092L4.17307 629.795L3.17307 629.795ZM3.17307 694.389L3.17306 726.686L4.17306 726.686L4.17307 694.389L3.17307 694.389ZM3.17306 758.984L3.17306 791.281L4.17306 791.281L4.17306 758.984L3.17306 758.984ZM3.17306 823.578L3.17306 855.875L4.17306 855.875L4.17306 823.578L3.17306 823.578ZM3.17306 888.172L3.17306 920.469L4.17306 920.469L4.17306 888.172L3.17306 888.172ZM3.17305 952.767L3.17305 985.064L4.17305 985.064L4.17305 952.767L3.17305 952.767ZM3.17305 1017.36L3.17305 1049.66L4.17305 1049.66L4.17305 1017.36L3.17305 1017.36ZM3.17305 1081.96L3.17305 1114.25L4.17305 1114.25L4.17305 1081.96L3.17305 1081.96ZM3.17305 1146.55L3.17304 1178.85L4.17304 1178.85L4.17305 1146.55L3.17305 1146.55ZM3.17304 1211.14L3.17304 1243.44L4.17304 1243.44L4.17304 1211.14L3.17304 1211.14ZM3.17304 1275.74L3.17304 1308.04L4.17304 1308.04L4.17304 1275.74L3.17304 1275.74ZM3.17304 1340.33L3.17304 1372.63L4.17304 1372.63L4.17304 1340.33L3.17304 1340.33ZM3.17303 1404.93L3.17303 1437.22L4.17303 1437.22L4.17303 1404.93L3.17303 1404.93ZM3.17303 1469.52L3.17303 1501.82L4.17303 1501.82L4.17303 1469.52L3.17303 1469.52ZM3.17303 1534.11L3.17303 1566.41L4.17303 1566.41L4.17303 1534.11L3.17303 1534.11ZM3.17303 1598.71L3.17303 1614.86L4.17303 1614.86L4.17303 1598.71L3.17303 1598.71Z" fill="#D1FA94"></path> </svg> 