<?xml version="1.0" standalone="no"?>
<!DOCTYPE svg PUBLIC "-//W3C//DTD SVG 20010904//EN"
 "http://www.w3.org/TR/2001/REC-SVG-20010904/DTD/svg10.dtd">
<svg version="1.0" xmlns="http://www.w3.org/2000/svg"
 width="1000.000000pt" height="400.000000pt" viewBox="0 0 1000.000000 400.000000"
 preserveAspectRatio="xMidYMid meet">

<g transform="translate(0.000000,400.000000) scale(0.100000,-0.100000)"
fill="#000000" stroke="none">
<path d="M1380 3713 c-72 -6 -326 -43 -440 -64 -228 -44 -531 -132 -684 -200
l-46 -20 0 -169 c0 -92 3 -175 6 -184 6 -14 115 -16 1133 -16 l1126 0 21 33
c33 51 114 89 188 90 141 0 235 -90 236 -226 0 -86 -47 -164 -124 -204 -45
-24 -144 -28 -189 -10 -57 24 -102 63 -123 107 l-19 40 -1121 0 -1121 0 4 -92
c2 -51 6 -99 8 -105 4 -10 169 -13 784 -13 l780 0 52 32 c41 26 64 33 118 36
145 8 244 -84 245 -228 1 -84 -27 -145 -89 -189 l-45 -32 -1 -252 c-4 -830 -4
-1349 1 -1357 7 -12 134 83 258 192 247 217 468 538 607 884 47 115 120 362
149 503 57 271 86 581 86 923 l0 237 -27 15 c-125 64 -529 179 -773 220 -273
46 -397 56 -685 54 -148 -1 -290 -3 -315 -5z"/>
<path d="M6930 2885 l0 -606 113 3 112 3 5 265 c6 293 7 299 74 358 88 77 233
61 294 -31 l27 -40 5 -276 5 -276 113 -3 113 -3 -3 318 c-4 351 -8 371 -70
447 -116 141 -375 154 -521 26 l-37 -32 0 226 0 226 -115 0 -115 0 0 -605z"/>
<path d="M4024 3431 c-2 -2 -4 -46 -4 -97 l0 -94 183 -2 182 -3 3 -477 2 -478
115 0 115 0 2 478 3 477 183 3 183 2 -3 96 -3 96 -478 1 c-263 1 -481 0 -483
-2z"/>
<path d="M5310 3150 c-73 -12 -176 -67 -232 -123 -130 -130 -162 -346 -78
-522 93 -195 351 -283 601 -206 65 21 174 87 174 107 0 6 -26 39 -57 73 l-57
61 -48 -30 c-59 -38 -102 -50 -174 -50 -129 0 -220 61 -253 167 l-7 23 328 2
328 3 3 45 c5 68 -16 166 -49 232 -84 166 -274 253 -479 218z m197 -194 c53
-25 93 -76 107 -138 l6 -28 -220 0 -221 0 7 23 c44 144 184 206 321 143z"/>
<path d="M6275 3142 c-147 -44 -235 -113 -292 -230 -38 -76 -38 -76 -38 -201
0 -122 1 -128 32 -192 76 -155 240 -249 433 -249 152 0 304 73 355 171 13 25
12 26 -65 77 l-79 52 -44 -44 c-36 -36 -55 -46 -102 -56 -164 -34 -293 62
-303 226 -6 87 17 152 73 203 102 94 258 88 341 -13 l29 -35 72 52 c40 29 75
58 78 65 13 32 -89 119 -185 158 -86 35 -219 42 -305 16z"/>
<path d="M2622 3045 c-45 -38 -59 -91 -37 -139 42 -89 168 -87 211 2 33 69
-17 150 -98 159 -37 4 -49 1 -76 -22z"/>
<path d="M1940 2622 c-50 -25 -76 -81 -61 -132 22 -75 95 -109 161 -75 42 22
60 53 60 105 0 51 -19 80 -67 104 -40 20 -50 20 -93 -2z"/>
<path d="M260 2503 c0 -10 7 -57 17 -105 l16 -88 623 0 c689 0 678 1 727 -63
32 -43 57 -92 57 -114 0 -10 10 -37 22 -60 l22 -42 -24 -33 -25 -33 -3 -735
c-1 -404 0 -740 3 -747 3 -10 35 2 114 42 l110 55 -4 852 -4 853 -48 33 c-53
35 -98 104 -108 164 l-7 38 -744 0 c-702 0 -744 -1 -744 -17z"/>
<path d="M340 2128 c0 -6 16 -65 35 -130 116 -391 315 -742 569 -1007 135
-140 352 -307 539 -415 l47 -28 0 724 0 725 -23 22 c-13 12 -34 44 -47 71
l-23 50 -549 0 c-409 0 -548 -3 -548 -12z"/>
<path d="M6826 1893 c-3 -3 -6 -84 -6 -180 0 -95 -4 -173 -8 -173 -5 0 -21 14
-38 31 -51 54 -99 73 -190 73 -72 0 -89 -4 -147 -32 -106 -52 -161 -138 -173
-269 -14 -146 48 -263 172 -324 57 -28 76 -33 142 -32 86 0 163 26 203 69 31
33 37 30 41 -18 l3 -43 53 0 53 0 -1 444 c0 245 -1 446 -3 446 -8 7 -96 13
-101 8z m-155 -364 c92 -31 143 -110 143 -219 -1 -142 -95 -230 -234 -217 -62
5 -107 25 -141 60 -76 79 -79 231 -6 314 57 65 153 90 238 62z"/>
<path d="M4249 1803 c-35 -79 -237 -518 -304 -663 -34 -74 -60 -138 -58 -142
2 -5 31 -8 63 -8 60 0 60 0 75 38 9 20 30 70 48 110 l32 72 230 -2 229 -3 46
-105 46 -105 63 -3 c63 -3 63 -3 57 21 -6 27 -263 594 -368 815 -10 19 -19 22
-74 22 l-64 0 -21 -47z m98 -110 c3 -10 41 -95 84 -190 44 -95 79 -177 79
-182 0 -12 -342 -16 -353 -5 -3 3 -2 14 3 23 16 27 147 324 154 349 9 26 24
29 33 5z"/>
<path d="M5100 1637 c-105 -25 -183 -84 -231 -177 -34 -64 -34 -211 -1 -285
61 -134 215 -211 371 -186 66 11 103 27 150 67 55 46 57 60 11 90 l-40 26 -35
-30 c-69 -62 -193 -68 -269 -15 -63 44 -91 103 -90 188 0 82 25 140 76 178 92
68 211 63 286 -12 l32 -32 40 32 c22 18 40 36 40 40 0 4 -21 25 -46 48 -74 65
-190 92 -294 68z"/>
<path d="M5745 1639 c-59 -12 -175 -65 -175 -80 0 -9 14 -32 46 -77 1 -2 26 9
56 24 69 35 187 45 237 20 41 -22 71 -71 71 -117 l0 -37 -137 -4 c-95 -4 -152
-10 -183 -22 -82 -31 -123 -88 -122 -172 1 -116 84 -186 222 -187 83 -1 141
16 184 53 18 17 36 30 39 30 3 0 7 -17 9 -37 l3 -38 53 -3 52 -3 0 226 c0 139
-4 244 -12 273 -29 118 -180 184 -343 151z m237 -409 c-4 -57 -28 -99 -72
-125 -28 -16 -53 -20 -118 -20 -82 0 -84 1 -113 33 -31 34 -38 77 -18 113 20
38 65 49 199 46 l125 -2 -3 -45z"/>
<path d="M7354 1640 c-139 -29 -229 -125 -254 -272 -21 -117 28 -246 118 -315
78 -60 222 -83 329 -54 44 12 138 72 138 87 0 5 -12 25 -27 44 l-26 34 -34
-26 c-46 -34 -91 -48 -160 -48 -97 0 -164 38 -199 115 -37 79 -51 75 237 75
l257 0 -5 68 c-12 165 -121 281 -278 295 -30 3 -73 2 -96 -3z m129 -101 c53
-14 103 -62 121 -116 9 -25 13 -49 10 -54 -3 -5 -93 -9 -201 -9 l-196 0 6 36
c18 107 142 176 260 143z"/>
<path d="M8140 1638 c-45 -10 -130 -61 -130 -78 0 -6 -4 -10 -10 -10 -5 0 -10
20 -10 45 l0 45 -55 0 -55 0 2 -322 3 -323 55 0 55 0 5 210 c3 123 10 220 17
235 41 92 181 129 258 68 50 -39 55 -68 55 -303 l0 -216 58 3 57 3 5 210 c5
228 11 250 66 294 74 58 195 45 241 -26 15 -23 19 -60 23 -253 l5 -225 55 0
55 0 3 219 c3 247 -6 300 -59 360 -83 95 -268 94 -367 -1 -25 -24 -48 -43 -51
-43 -3 1 -15 15 -26 32 -40 63 -159 99 -255 76z"/>
<path d="M9000 1630 c0 -12 54 -138 150 -350 28 -63 68 -152 87 -198 l36 -82
-23 -50 c-13 -28 -31 -57 -41 -66 -23 -21 -90 -29 -117 -15 -19 10 -23 7 -42
-28 -11 -22 -20 -42 -20 -44 0 -15 76 -32 142 -32 121 1 106 -23 327 488 82
189 152 354 156 366 6 20 3 21 -52 21 l-58 -1 -95 -224 c-52 -124 -96 -232
-98 -240 -9 -41 -36 5 -133 223 l-105 237 -57 3 c-38 2 -57 -1 -57 -8z"/>
</g>
</svg>
