<svg xmlns="http://www.w3.org/2000/svg" width="322" height="348" viewBox="0 0 322 348" version="1.1">
	<path fill-opacity="0.404" d="M 129.500 10.636 C 127.850 10.877, 119.343 11.974, 110.596 13.076 C 90.291 15.633, 77.238 18.124, 58.500 23.016 C 36.649 28.721, 13.649 36.817, 11.765 39.467 C 10.870 40.727, 10.753 68.514, 11.625 72.875 L 12.250 76 124.541 76 L 236.832 76 239.938 72.079 C 250.516 58.723, 273.454 61.470, 280.285 76.911 C 289.128 96.902, 267.972 116.265, 248.105 106.365 C 242.988 103.815, 237 97.336, 237 94.350 C 237 93.247, 231.365 92.988, 206.250 92.935 C 189.338 92.899, 138.825 92.786, 94 92.685 L 12.500 92.500 12.861 102.500 C 13.059 108, 13.423 112.837, 13.670 113.250 C 13.916 113.662, 49.162 114, 91.993 114 L 169.867 114 175 110.809 C 180.924 107.126, 188.783 106.057, 195.879 107.967 C 201.522 109.487, 209.088 116.926, 210.778 122.616 C 214.063 133.678, 210.795 142.375, 200.224 150.706 L 197.947 152.500 197.795 232.738 C 197.711 276.869, 197.852 313.186, 198.109 313.442 C 198.894 314.227, 215.732 301.083, 225.528 292.039 C 280.651 241.150, 307.973 165.179, 307.995 62.737 L 308 38.975 302.250 36.415 C 283.373 28.013, 247.552 18.537, 217 13.863 C 197.714 10.913, 194.605 10.712, 164.500 10.463 C 146.900 10.318, 131.150 10.396, 129.500 10.636 M 252.096 77.573 C 247.996 81.023, 246.384 86.908, 248.446 90.895 C 250.780 95.409, 254.715 98, 259.235 98 C 264.655 98, 270 92.869, 270 87.665 C 270 82.422, 268.440 79.239, 264.775 77.004 C 260.250 74.245, 255.814 74.444, 252.096 77.573 M 184 119.752 C 178.966 122.266, 176.361 127.924, 177.889 133.024 C 181.262 144.282, 194.983 144.997, 199.326 134.142 C 201.871 127.782, 199.406 122.180, 192.920 119.585 C 188.035 117.630, 188.255 117.626, 184 119.752 M 15.999 132.244 C 15.999 133.485, 16.735 138.213, 17.636 142.750 L 19.274 151 34.887 151.073 C 43.474 151.112, 71.650 151.169, 97.500 151.198 C 148.514 151.256, 149.160 151.320, 153.769 156.801 C 156.970 160.608, 160 166.546, 160 169.012 C 160 170.162, 160.995 172.832, 162.210 174.944 L 164.421 178.785 161.710 182.696 L 159 186.608 159 260.245 C 159 300.745, 159.343 334.094, 159.762 334.353 C 160.181 334.612, 165.244 332.446, 171.012 329.540 L 181.500 324.257 181.328 238.878 L 181.157 153.500 176.328 150.254 C 170.959 146.645, 166.361 139.580, 165.751 134 L 165.369 130.500 90.684 130.244 L 16 129.987 15.999 132.244 M 24 169.338 C 24 172.418, 31.326 195.228, 36.067 206.907 C 45.432 229.979, 59.669 254.315, 73.563 271 C 80.368 279.172, 96.551 295.189, 104.500 301.621 C 114.936 310.065, 141.751 327.583, 142.734 326.599 C 143.030 326.304, 143.182 293.665, 143.073 254.069 L 142.873 182.076 140.138 179.148 C 138.634 177.537, 136.569 174.370, 135.550 172.110 L 133.696 168 78.848 168 C 33.707 168, 24 168.237, 24 169.338" stroke="none" fill="black" fill-rule="evenodd"/>
	<path fill-opacity="0.230" d="M 128 11.640 C 123.353 12.065, 111.127 13.608, 97 15.554 C 74.880 18.600, 30.110 30.750, 31.675 33.283 C 32.059 33.904, 31.811 34.001, 31.048 33.530 C 29.240 32.412, 21.547 35.072, 23.217 36.236 C 24.072 36.833, 23.796 36.935, 22.391 36.543 C 19.885 35.844, 16.783 36.839, 17.558 38.093 C 17.858 38.579, 17.332 38.681, 16.388 38.319 C 15.292 37.898, 14.912 38.049, 15.337 38.737 C 15.761 39.422, 15.275 39.623, 14.001 39.290 C 12.054 38.781, 12 39.255, 12 56.777 L 12 74.788 20.750 75.348 C 25.562 75.657, 45.700 75.769, 65.500 75.597 C 85.300 75.425, 121.525 75.127, 146 74.935 C 170.475 74.742, 186.229 74.435, 181.009 74.252 C 175.789 74.069, 171.160 73.560, 170.722 73.122 C 170.284 72.684, 170.391 71.102, 170.960 69.606 C 171.561 68.024, 171.598 67.131, 171.047 67.471 C 170.526 67.793, 169.631 67.180, 169.058 66.109 C 168.294 64.681, 168.348 64.027, 169.258 63.660 C 170.242 63.262, 170.240 63.141, 169.250 63.079 C 167.728 62.983, 167.525 56, 169.044 56 C 169.618 56, 169.955 55.258, 169.794 54.351 C 169.602 53.277, 170.252 52.641, 171.660 52.525 C 172.849 52.427, 175.049 51.482, 176.551 50.424 C 178.052 49.366, 179.980 48.050, 180.836 47.500 C 181.691 46.950, 183.250 45.747, 184.301 44.828 C 185.351 43.908, 187.063 43.320, 188.105 43.520 C 189.147 43.721, 190.004 43.574, 190.008 43.193 C 190.012 42.812, 191.138 41.980, 192.509 41.344 C 194.254 40.534, 194.798 40.518, 194.321 41.290 C 193.946 41.897, 195.050 41.389, 196.774 40.161 C 198.854 38.680, 199.705 37.396, 199.303 36.348 C 198.782 34.990, 199.017 34.939, 200.969 35.983 C 202.219 36.652, 202.958 36.741, 202.611 36.180 C 201.824 34.906, 204.828 31.775, 206.090 32.555 C 207.759 33.587, 211.063 31.909, 210.776 30.174 C 210.600 29.107, 211.131 28.550, 212.239 28.637 C 213.196 28.712, 213.788 28.466, 213.555 28.089 C 212.836 26.925, 214.365 25.519, 217.500 24.463 C 219.150 23.907, 220.539 23.013, 220.586 22.476 C 220.634 21.939, 221.011 20.734, 221.425 19.798 C 221.839 18.862, 221.910 17.663, 221.582 17.133 C 221.255 16.604, 221.552 15.983, 222.243 15.752 C 222.933 15.522, 220.799 15.008, 217.499 14.610 C 214.200 14.212, 206.100 13.240, 199.500 12.452 C 188.707 11.162, 139.362 10.602, 128 11.640 M 13 99.875 C 13 103.656, 13.281 108.156, 13.625 109.875 L 14.250 113 92.004 113 L 169.758 113 175.570 109.500 C 180.166 106.732, 182.545 105.965, 186.941 105.832 L 192.500 105.664 186.500 105 C 183.200 104.635, 181.287 104.261, 182.250 104.168 C 184.112 103.989, 184.738 102, 182.933 102 C 182.327 102, 182.107 101.027, 182.423 99.750 C 182.730 98.513, 182.723 98.063, 182.407 98.750 C 181.285 101.193, 180.153 99.953, 180.954 97.159 L 181.769 94.318 151.135 93.661 C 134.286 93.299, 96.313 93.003, 66.750 93.002 L 13 93 13 99.875 M 183.763 120.565 C 178.924 123.191, 176.736 129.678, 179.125 134.316 C 181.660 139.238, 184.198 141, 188.751 141 C 195.069 141, 199 136.989, 199 130.542 C 199 124.991, 196.941 121.524, 192.785 120.075 C 188.764 118.673, 187.081 118.765, 183.763 120.565 M 16.442 133.250 C 16.705 134.488, 17.420 138.200, 18.030 141.500 C 18.639 144.800, 19.364 148.293, 19.640 149.263 C 20.114 150.924, 23.790 151.024, 82.933 150.985 C 120.729 150.960, 146.727 151.326, 148.246 151.904 C 153.451 153.883, 161 164.508, 161 169.856 C 161 171.080, 161.921 173.327, 163.048 174.850 C 165.281 177.871, 164.732 181.318, 161.604 183.914 C 160.158 185.114, 160 192.582, 160 259.622 C 160 300.530, 160.263 334, 160.585 334 C 160.908 334, 165.633 331.708, 171.085 328.907 L 181 323.815 181 238.475 L 181 153.135 178.889 152.465 C 172.882 150.558, 165.072 140.018, 165.022 133.750 L 165 131 90.481 131 L 15.962 131 16.442 133.250 M 212.079 135.583 C 212.127 136.748, 212.364 136.985, 212.683 136.188 C 212.972 135.466, 212.936 134.603, 212.604 134.271 C 212.272 133.939, 212.036 134.529, 212.079 135.583 M 208.684 143.958 C 207.723 145.585, 205.161 148.172, 202.990 149.708 L 199.043 152.500 199.015 174 C 199 185.825, 198.699 199.213, 198.346 203.750 C 197.885 209.666, 198.028 212, 198.852 212 C 199.526 212, 200.026 210.246, 200.063 207.750 C 200.116 204.193, 200.274 203.867, 201.031 205.750 C 201.883 207.869, 203.140 208.888, 202.882 207.250 C 202.521 204.968, 203.134 202.965, 204.025 203.515 C 204.588 203.864, 204.985 203.778, 204.906 203.324 C 204.828 202.871, 204.816 192.698, 204.882 180.718 C 204.989 160.979, 205.164 158.868, 206.750 158.218 C 207.713 157.823, 208.624 156.904, 208.775 156.176 C 208.933 155.411, 208.571 155.147, 207.918 155.551 C 207.143 156.029, 206.999 155.579, 207.460 154.125 C 207.952 152.575, 207.710 152, 206.567 152 C 204.200 152, 204.671 150.138, 208 146.347 C 209.650 144.468, 211 142.496, 211 141.965 C 211 140.418, 210.542 140.812, 208.684 143.958 M 24 168.818 C 24 170.541, 33.004 198.054, 36.514 207.057 C 48.381 237.494, 71.389 271.645, 93.067 291 C 102.570 299.484, 114.760 309.093, 123.500 314.989 C 130.869 319.961, 141.198 326, 142.331 326 C 142.699 326, 143 293.616, 143 254.035 C 143 185.304, 142.918 182.026, 141.169 181.090 C 140.161 180.551, 137.885 177.385, 136.110 174.055 L 132.883 168 78.441 168 C 48.499 168, 24 168.368, 24 168.818 M 198.232 217 C 198.232 218.925, 198.438 219.713, 198.689 218.750 C 198.941 217.787, 198.941 216.213, 198.689 215.250 C 198.438 214.287, 198.232 215.075, 198.232 217" stroke="none" fill="black" fill-rule="evenodd"/>
	<path fill-opacity="0.547" d="M 14 112.139 C 14 112.612, 15.125 113, 16.500 113 C 17.875 113, 19 112.827, 19 112.617 C 19 112.406, 17.875 112.018, 16.500 111.755 C 15.125 111.492, 14 111.665, 14 112.139 M 16.998 132.250 C 16.997 132.938, 17.719 137.438, 18.602 142.250 L 20.208 151 52.941 151 C 94.671 151, 144.068 149.733, 131.696 148.980 C 123.110 148.458, 120.156 147.174, 121.720 144.643 C 122.044 144.119, 121.848 143.976, 121.284 144.325 C 120.720 144.673, 119.224 144.062, 117.960 142.965 C 116.558 141.750, 114.925 141.206, 113.773 141.572 C 112.531 141.966, 111.218 141.404, 109.942 139.933 C 108.874 138.701, 108 138.259, 108 138.951 C 108 139.642, 106.409 138.811, 104.465 137.104 C 102.521 135.397, 100.496 134, 99.965 134 C 99.434 134, 99 133.576, 99 133.057 C 99 132.539, 100.913 131.943, 103.250 131.732 C 105.588 131.522, 87.138 131.271, 62.250 131.175 C 26.624 131.037, 17 131.266, 16.998 132.250 M 24.406 169.750 C 24.703 170.713, 26.809 177.575, 29.086 185 C 36.121 207.940, 44.997 227.656, 56.774 246.500 C 69.212 266.402, 87.307 286.805, 105.570 301.518 C 114.597 308.791, 140.424 326, 142.312 326 C 142.963 326, 143.052 301.499, 142.572 254.405 L 141.842 182.811 138.617 178.585 C 136.843 176.261, 134.799 172.929, 134.075 171.180 L 132.757 168 78.311 168 C 26.919 168, 23.896 168.098, 24.406 169.750" stroke="none" fill="black" fill-rule="evenodd"/>
	<path fill-opacity="0.491" d="M 29.079 183.583 C 29.127 184.748, 29.364 184.985, 29.683 184.188 C 29.972 183.466, 29.936 182.603, 29.604 182.271 C 29.272 181.939, 29.036 182.529, 29.079 183.583 M 32.141 193 C 32.141 193.825, 32.527 195.400, 33 196.500 C 33.542 197.761, 33.859 197.945, 33.859 197 C 33.859 196.175, 33.473 194.600, 33 193.500 C 32.458 192.239, 32.141 192.055, 32.141 193 M 34.093 199.256 C 33.871 201.057, 48.055 231.339, 53.177 240 C 72.084 271.970, 93.394 294.167, 125.777 315.624 C 133.630 320.827, 140.605 325.295, 141.277 325.553 C 142.106 325.871, 142.444 324.971, 142.327 322.761 C 142.232 320.968, 142.020 299.700, 141.857 275.500 C 141.693 251.300, 141.421 237.912, 141.252 245.750 C 141.006 257.177, 140.667 260, 139.540 260 C 138.767 260, 137.857 259.126, 137.518 258.057 C 136.132 253.690, 119.794 234.987, 112.556 229.481 C 109.819 227.400, 108.985 227.253, 104.569 228.082 C 101.857 228.591, 98.707 229.611, 97.569 230.348 C 95.539 231.664, 92.569 231.507, 93.420 230.129 C 93.658 229.744, 92.986 229.429, 91.927 229.429 C 90.867 229.429, 90 229.782, 90 230.214 C 90 230.646, 89.298 231, 88.441 231 C 87.584 231, 87.181 230.517, 87.546 229.926 C 87.911 229.336, 87.203 229.448, 85.974 230.176 C 84.206 231.223, 83.644 231.238, 83.286 230.250 C 83.037 229.563, 82.244 229, 81.524 229 C 80.803 229, 79.955 228.325, 79.638 227.500 C 79.322 226.675, 78.572 226, 77.972 226 C 77.373 226, 77.167 226.563, 77.515 227.250 C 77.863 227.938, 77.503 227.713, 76.714 226.750 C 75.925 225.787, 74.290 225, 73.081 225 C 71.871 225, 71.143 224.578, 71.461 224.063 C 71.790 223.531, 70.916 223.329, 69.440 223.597 C 67.806 223.893, 67.077 223.684, 67.479 223.034 C 68.434 221.489, 67.070 221.787, 65.359 223.498 C 64.287 224.570, 63.350 224.722, 62.062 224.033 C 61.073 223.504, 59.979 223.355, 59.631 223.702 C 59.284 224.049, 58.968 223.696, 58.930 222.917 C 58.888 222.080, 58.508 222.319, 58 223.500 C 57.265 225.210, 57.130 225.246, 57.070 223.750 C 57.002 222.047, 55 221.166, 55 222.839 C 55 223.301, 53.875 224.192, 52.500 224.818 C 50.838 225.575, 50 225.609, 50 224.920 C 50 224.349, 49.550 224.160, 49 224.500 C 47.698 225.305, 47.732 224.368, 49.100 221.814 C 49.899 220.319, 49.899 219.944, 49.100 220.438 C 48.495 220.812, 48 220.615, 48 220 C 48 219.385, 47.550 219.160, 47 219.500 C 46.437 219.848, 46 219.042, 46 217.653 C 46 215.777, 45.572 215.299, 44.212 215.655 C 42.788 216.027, 41.584 214.326, 38.305 207.311 C 36.040 202.465, 34.145 198.840, 34.093 199.256 M 52.015 227.750 C 52.025 228.829, 52.312 229.078, 52.765 228.400 C 53.169 227.795, 54.175 227.043, 55 226.729 C 56.002 226.347, 55.753 226.132, 54.250 226.079 C 52.738 226.026, 52.005 226.574, 52.015 227.750" stroke="none" fill="black" fill-rule="evenodd"/>
</svg>