<?xml version="1.0" encoding="UTF-8"?> <svg xmlns="http://www.w3.org/2000/svg" width="57" height="57" viewBox="0 0 57 57" fill="none"><g clip-path="url(#clip0_267_5452)"><path d="M28.1626 0.744141C20.7382 0.744141 13.6113 3.69595 8.36572 8.94508C3.11468 14.1963 0.164052 21.3179 0.162598 28.7441C0.162598 36.1672 3.11572 43.2941 8.36572 48.5432C13.6113 53.7923 20.7382 56.7441 28.1626 56.7441C35.587 56.7441 42.7138 53.7923 47.9595 48.5432C53.2095 43.2941 56.1626 36.1672 56.1626 28.7441C56.1626 21.3211 53.2095 14.1942 47.9595 8.94508C42.7138 3.69595 35.587 0.744141 28.1626 0.744141Z" fill="url(#paint0_linear_267_5452)"></path><path d="M12.8371 28.4482C21.0008 24.8922 26.4433 22.5477 29.1646 21.415C36.9433 18.1806 38.5577 17.6188 39.6121 17.5998C39.8439 17.5961 40.3602 17.6534 40.6971 17.9257C40.9771 18.1554 41.0558 18.466 41.0952 18.6841C41.1302 18.902 41.1783 19.3986 41.1389 19.7862C40.7189 24.2137 38.8946 34.9578 37.9671 39.9169C37.5777 42.0151 36.8033 42.7186 36.0552 42.7873C34.4277 42.9369 33.1939 41.7128 31.6189 40.6807C29.1558 39.0651 27.7646 38.0597 25.3714 36.4834C22.6064 34.6616 24.4002 33.6602 25.9752 32.0239C26.3864 31.5956 33.5527 25.0791 33.6883 24.488C33.7058 24.4141 33.7233 24.1384 33.5571 23.9932C33.3952 23.8475 33.1546 23.8974 32.9796 23.9367C32.7302 23.9927 28.7971 26.595 21.1671 31.7431C20.0514 32.5104 19.0408 32.8845 18.1308 32.8648C17.1333 32.8434 15.2083 32.2996 13.7777 31.8349C12.0277 31.2649 10.6321 30.9634 10.7546 29.9952C10.8158 29.4912 11.5114 28.9754 12.8371 28.4482Z" fill="white"></path></g><defs><linearGradient id="paint0_linear_267_5452" x1="2800.16" y1="0.744141" x2="2800.16" y2="5600.74" gradientUnits="userSpaceOnUse"><stop stop-color="#2AABEE"></stop><stop offset="1" stop-color="#229ED9"></stop></linearGradient><clipPath id="clip0_267_5452"><rect width="56" height="56" fill="white" transform="translate(0.162598 0.744141)"></rect></clipPath></defs></svg> 