<?xml version="1.0" encoding="UTF-8"?> <svg xmlns="http://www.w3.org/2000/svg" width="133" height="44" viewBox="0 0 133 44" fill="none"><path fill-rule="evenodd" clip-rule="evenodd" d="M14.7795 16.9483L12.5993 29.1343H22.9444C25.3216 29.1343 26.9375 30.3075 26.6875 32.8187C26.1735 37.7573 18.7083 37.7643 16.8382 33.1497L10.0923 36.7866C14.9289 47.5997 32.8091 46.1122 34.277 33.2908C34.9628 26.8759 30.8161 21.7654 24.1958 21.7654H21.693L22.5198 17.2304H34.3776L35.1276 10.1451C27.2867 10.1451 19.4458 10.1451 11.6049 10.1451C12.0141 7.7205 13.6831 6.61853 16.6119 6.8392L17.7921 0.0374104C14.0127 -0.183264 11.0057 0.572336 8.76961 2.30421C6.53494 4.03608 5.11731 6.65065 4.51954 10.1451H1.35468L0.173096 16.9483H3.33795L1.18149 29.1343H8.26681L10.4233 16.9483H14.7795Z" fill="#313131"></path><path d="M50.2855 17.6352L50.6235 15.6701H52.4615L50.6025 26.2345H48.7645L49.0382 24.7345C47.9404 25.9174 46.5312 26.5082 44.8133 26.5082C43.2909 26.5082 42.101 25.9314 41.242 24.7764C40.3831 23.6353 40.0939 22.2833 40.3761 20.7204C40.6442 19.1003 41.3551 17.8112 42.5102 16.853C43.6513 15.881 44.939 15.3949 46.3762 15.3949C48.2072 15.3949 49.5103 16.1421 50.2855 17.6352ZM49.6723 21.0361C49.8972 19.8391 49.6863 18.895 49.0382 18.205C48.4055 17.5151 47.5592 17.1701 46.5033 17.1701C45.5033 17.1701 44.587 17.5011 43.756 18.1631C42.911 18.8391 42.3971 19.74 42.2141 20.8671C42.0172 21.9663 42.2141 22.8811 42.8049 23.6143C43.425 24.3601 44.263 24.7345 45.3203 24.7345C46.3901 24.7345 47.3343 24.3895 48.1513 23.6995C48.9684 22.9942 49.4754 22.1073 49.6723 21.0361ZM58.4197 26.5082C56.8568 26.5082 55.6166 25.9454 54.7017 24.8183C53.7995 23.6911 53.4894 22.3252 53.7716 20.7204C54.0537 19.1422 54.7855 17.867 55.9685 16.8949C57.1808 15.8949 58.5677 15.3949 60.132 15.3949C61.1739 15.3949 62.0859 15.6421 62.8667 16.1351C63.6488 16.6282 64.1949 17.2972 64.505 18.1422L62.8778 18.9871C62.4128 17.7902 61.4477 17.191 59.9839 17.191C58.9127 17.191 57.9616 17.543 57.1305 18.2469C56.2995 18.9522 55.7925 19.8252 55.6096 20.8671C55.4266 21.9383 55.6166 22.8462 56.1794 23.5934C56.7437 24.3252 57.5677 24.6926 58.6529 24.6926C59.3568 24.6926 60.0119 24.5264 60.6166 24.1953C61.2228 23.8643 61.7158 23.4034 62.0971 22.8112L63.5748 23.7833C63.0399 24.6423 62.3178 25.3113 61.41 25.7903C60.5007 26.2694 59.5049 26.5082 58.4197 26.5082ZM75.1113 17.6352L75.4493 15.6701H77.2873L75.4283 26.2345H73.5903L73.8655 24.7345C72.7663 25.9174 71.357 26.5082 69.6391 26.5082C68.1182 26.5082 66.9282 25.9314 66.0678 24.7764C65.2089 23.6353 64.9198 22.2833 65.2019 20.7204C65.4701 19.1003 66.181 17.8112 67.336 16.853C68.4771 15.881 69.7662 15.3949 71.202 15.3949C73.0344 15.3949 74.3375 16.1421 75.1113 17.6352ZM74.4996 21.0361C74.7244 19.8391 74.5135 18.895 73.8655 18.205C73.2314 17.5151 72.3864 17.1701 71.3291 17.1701C70.3291 17.1701 69.4143 17.5011 68.5833 18.1631C67.7383 18.8391 67.2229 19.74 67.0399 20.8671C66.843 21.9663 67.0399 22.8811 67.6321 23.6143C68.2522 24.3601 69.0902 24.7345 70.1461 24.7345C71.216 24.7345 72.1601 24.3895 72.9772 23.6995C73.7942 22.9942 74.3012 22.1073 74.4996 21.0361ZM88.5068 17.6561L89.606 11.4437H91.444L88.8448 26.2345H87.0067L87.2819 24.7135C86.1687 25.9105 84.7539 26.5082 83.0346 26.5082C81.5136 26.5082 80.3237 25.9314 79.4633 24.7764C78.6044 23.6353 78.3167 22.2833 78.5974 20.7204C78.8656 19.1003 79.5765 17.8112 80.7315 16.853C81.8726 15.881 83.1617 15.3949 84.5989 15.3949C85.4858 15.3949 86.2707 15.5918 86.9537 15.9871C87.6367 16.381 88.1548 16.9368 88.5068 17.6561ZM87.916 21.0361C88.1269 19.8391 87.909 18.895 87.2609 18.205C86.6269 17.5151 85.7889 17.1701 84.7455 17.1701C83.7316 17.1701 82.8097 17.5011 81.9787 18.1631C81.1337 18.8391 80.6198 19.74 80.4354 20.8671C80.2385 21.9663 80.4354 22.8811 81.0276 23.6143C81.6477 24.3601 82.4857 24.7345 83.5416 24.7345C84.6268 24.7345 85.578 24.3895 86.3936 23.6995C87.226 22.9942 87.733 22.1073 87.916 21.0361ZM98.2905 15.3949C99.8813 15.3949 101.101 15.9438 101.946 17.043C102.805 18.1128 103.087 19.4243 102.791 20.9732C102.777 21.1422 102.705 21.4174 102.58 21.7973H93.7471C93.7471 22.7274 94.0362 23.4551 94.613 23.9844C95.1912 24.5124 95.972 24.7764 96.9594 24.7764C98.3673 24.7764 99.4874 24.2554 100.318 23.2135L101.691 24.2051C101.156 24.9244 100.453 25.4873 99.5782 25.8965C98.7053 26.3043 97.7611 26.5082 96.7471 26.5082C95.0851 26.5082 93.8099 25.9524 92.9231 24.8406C92.0501 23.7275 91.7471 22.3601 92.0152 20.74C92.282 19.205 93.0082 17.9313 94.1912 16.9159C95.3742 15.9019 96.7402 15.3949 98.2905 15.3949ZM94.0222 20.1701H101.057C101.101 19.1841 100.86 18.4313 100.339 17.9089C99.8184 17.388 99.1005 17.1282 98.1843 17.1282C97.1983 17.1282 96.3351 17.3991 95.5963 17.941C94.856 18.483 94.3323 19.226 94.0222 20.1701ZM117.221 15.3949C118.348 15.3949 119.228 15.7818 119.862 16.5569C120.496 17.3461 120.707 18.381 120.496 19.6631L119.334 26.2345H117.496L118.637 19.726C118.778 18.895 118.679 18.2581 118.341 17.8139C118.003 17.3712 117.475 17.1491 116.757 17.1491C115.968 17.1491 115.295 17.4131 114.739 17.941C114.182 18.469 113.806 19.2553 113.608 20.2972L112.573 26.2345H110.735L111.876 19.726C112.017 18.895 111.929 18.2581 111.612 17.8139C111.295 17.3712 110.791 17.1491 110.101 17.1491C109.298 17.1491 108.598 17.4201 107.999 17.962C107.4 18.5053 107.015 19.2832 106.846 20.2972V20.2763L105.791 26.2345H103.953L105.812 15.6701H107.65L107.418 16.9368C108.32 15.9089 109.432 15.3949 110.756 15.3949C112.179 15.3949 113.122 16.008 113.587 17.2329C114.545 16.008 115.756 15.3949 117.221 15.3949ZM126.243 24.0152L130.806 15.6701H132.857L126.581 26.8895C125.172 29.4245 123.398 30.6144 121.257 30.4608L121.553 28.7485C122.201 28.8044 122.767 28.6633 123.253 28.3253C123.739 27.9873 124.215 27.4244 124.681 26.6353L124.996 26.1283L122.292 15.6701H124.151L126.243 24.0152Z" fill="#323232"></path></svg> 