<?xml version="1.0" encoding="UTF-8"?> <svg xmlns="http://www.w3.org/2000/svg" width="134" height="45" viewBox="0 0 134 45" fill="none"><path fill-rule="evenodd" clip-rule="evenodd" d="M15.059 17.629L12.8788 29.8149H23.224C25.6011 29.8149 27.2171 30.9881 26.9671 33.4994C26.4531 38.438 18.9879 38.445 17.1177 33.8304L10.3718 37.4673C15.2085 48.2803 33.0887 46.7929 34.5566 33.9714C35.2423 27.5565 31.0956 22.4461 24.4754 22.4461H21.9726L22.7994 17.9111H34.6571L35.4071 10.8258C27.5662 10.8258 19.7253 10.8258 11.8844 10.8258C12.2936 8.40117 13.9626 7.29919 16.8915 7.51987L18.0716 0.718074C14.2923 0.4974 11.2852 1.253 9.04915 2.98487C6.81448 4.71675 5.39685 7.33132 4.79908 10.8258H1.63422L0.452637 17.629H3.61749L1.46103 29.8149H8.54635L10.7028 17.629H15.059Z" fill="#222222"></path><path d="M50.5649 18.3155L50.9029 16.3504H52.741L50.882 26.9148H49.044L49.3177 25.4148C48.2199 26.5977 46.8107 27.1885 45.0928 27.1885C43.5704 27.1885 42.3804 26.6117 41.5215 25.4567C40.6625 24.3156 40.3734 22.9636 40.6556 21.4007C40.9237 19.7806 41.6346 18.4914 42.7897 17.5333C43.9307 16.5612 45.2185 16.0752 46.6557 16.0752C48.4867 16.0752 49.7898 16.8224 50.5649 18.3155ZM49.9518 21.7164C50.1767 20.5194 49.9658 19.5753 49.3177 18.8853C48.685 18.1954 47.8386 17.8504 46.7828 17.8504C45.7827 17.8504 44.8665 18.1814 44.0355 18.8434C43.1905 19.5194 42.6765 20.4203 42.4936 21.5474C42.2966 22.6465 42.4936 23.5614 43.0844 24.2946C43.7045 25.0404 44.5425 25.4148 45.5998 25.4148C46.6696 25.4148 47.6138 25.0698 48.4308 24.3798C49.2479 23.6745 49.7549 22.7876 49.9518 21.7164ZM58.6992 27.1885C57.1363 27.1885 55.896 26.6257 54.9812 25.4986C54.079 24.3714 53.7689 23.0055 54.051 21.4007C54.3332 19.8225 55.065 18.5473 56.248 17.5752C57.4603 16.5752 58.8472 16.0752 60.4115 16.0752C61.4534 16.0752 62.3654 16.3224 63.1462 16.8154C63.9283 17.3085 64.4744 17.9775 64.7845 18.8225L63.1573 19.6674C62.6922 18.4705 61.7271 17.8713 60.2634 17.8713C59.1922 17.8713 58.241 18.2233 57.41 18.9272C56.579 19.6325 56.072 20.5055 55.8891 21.5474C55.7061 22.6186 55.896 23.5265 56.4589 24.2737C57.0231 25.0055 57.8472 25.3729 58.9324 25.3729C59.6363 25.3729 60.2914 25.2066 60.8961 24.8756C61.5023 24.5446 61.9953 24.0837 62.3766 23.4915L63.8543 24.4636C63.3193 25.3226 62.5973 25.9916 61.6894 26.4706C60.7802 26.9497 59.7844 27.1885 58.6992 27.1885ZM75.3908 18.3155L75.7288 16.3504H77.5668L75.7078 26.9148H73.8698L74.145 25.4148C73.0458 26.5977 71.6365 27.1885 69.9186 27.1885C68.3976 27.1885 67.2077 26.6117 66.3473 25.4567C65.4884 24.3156 65.1993 22.9636 65.4814 21.4007C65.7496 19.7806 66.4605 18.4914 67.6155 17.5333C68.7566 16.5612 70.0457 16.0752 71.4815 16.0752C73.3139 16.0752 74.617 16.8224 75.3908 18.3155ZM74.779 21.7164C75.0039 20.5194 74.793 19.5753 74.145 18.8853C73.5109 18.1954 72.6659 17.8504 71.6086 17.8504C70.6086 17.8504 69.6938 18.1814 68.8627 18.8434C68.0177 19.5194 67.5024 20.4203 67.3194 21.5474C67.1225 22.6465 67.3194 23.5614 67.9116 24.2946C68.5317 25.0404 69.3697 25.4148 70.4256 25.4148C71.4955 25.4148 72.4396 25.0698 73.2567 24.3798C74.0737 23.6745 74.5807 22.7876 74.779 21.7164ZM88.7863 18.3364L89.8854 12.124H91.7235L89.1243 26.9148H87.2862L87.5614 25.3938C86.4482 26.5907 85.0334 27.1885 83.3141 27.1885C81.7931 27.1885 80.6032 26.6117 79.7428 25.4567C78.8839 24.3156 78.5961 22.9636 78.8769 21.4007C79.145 19.7806 79.8559 18.4914 81.011 17.5333C82.1521 16.5612 83.4412 16.0752 84.8784 16.0752C85.7653 16.0752 86.5502 16.2721 87.2332 16.6674C87.9161 17.0613 88.4343 17.6171 88.7863 18.3364ZM88.1955 21.7164C88.4064 20.5194 88.1885 19.5753 87.5404 18.8853C86.9063 18.1954 86.0683 17.8504 85.025 17.8504C84.011 17.8504 83.0892 18.1814 82.2582 18.8434C81.4132 19.5194 80.8993 20.4203 80.7149 21.5474C80.518 22.6465 80.7149 23.5614 81.3071 24.2946C81.9272 25.0404 82.7652 25.4148 83.8211 25.4148C84.9063 25.4148 85.8574 25.0698 86.6731 24.3798C87.5055 23.6745 88.0125 22.7876 88.1955 21.7164ZM98.5699 16.0752C100.161 16.0752 101.38 16.6241 102.225 17.7233C103.084 18.7931 103.366 20.1046 103.07 21.6535C103.056 21.8225 102.985 22.0977 102.859 22.4776H94.0266C94.0266 23.4077 94.3157 24.1354 94.8925 24.6647C95.4707 25.1927 96.2515 25.4567 97.2389 25.4567C98.6468 25.4567 99.7669 24.9357 100.598 23.8938L101.971 24.8854C101.436 25.6047 100.732 26.1676 99.8577 26.5768C98.9848 26.9846 98.0406 27.1885 97.0266 27.1885C95.3646 27.1885 94.0894 26.6327 93.2025 25.5209C92.3296 24.4078 92.0265 23.0404 92.2947 21.4203C92.5615 19.8853 93.2877 18.6116 94.4707 17.5962C95.6537 16.5822 97.0196 16.0752 98.5699 16.0752ZM94.3017 20.8504H101.337C101.38 19.8644 101.14 19.1116 100.619 18.5892C100.098 18.0683 99.38 17.8085 98.4638 17.8085C97.4777 17.8085 96.6146 18.0794 95.8758 18.6213C95.1355 19.1632 94.6118 19.9063 94.3017 20.8504ZM117.5 16.0752C118.628 16.0752 119.507 16.4621 120.142 17.2372C120.776 18.0264 120.987 19.0613 120.776 20.3434L119.614 26.9148H117.776L118.917 20.4063C119.058 19.5753 118.959 18.9384 118.621 18.4942C118.283 18.0515 117.755 17.8294 117.037 17.8294C116.248 17.8294 115.574 18.0934 115.019 18.6213C114.461 19.1493 114.086 19.9356 113.887 20.9775L112.852 26.9148H111.014L112.155 20.4063C112.296 19.5753 112.208 18.9384 111.891 18.4942C111.574 18.0515 111.07 17.8294 110.38 17.8294C109.577 17.8294 108.877 18.1004 108.278 18.6423C107.679 19.1856 107.295 19.9635 107.126 20.9775V20.9566L106.07 26.9148H104.232L106.091 16.3504H107.929L107.697 17.6171C108.599 16.5892 109.711 16.0752 111.035 16.0752C112.458 16.0752 113.401 16.6883 113.866 17.9132C114.824 16.6883 116.035 16.0752 117.5 16.0752ZM126.523 24.6955L131.086 16.3504H133.136L126.861 27.5698C125.452 30.1048 123.678 31.2947 121.537 31.1411L121.833 29.4288C122.481 29.4847 123.047 29.3436 123.533 29.0056C124.019 28.6676 124.495 28.1047 124.96 27.3156L125.276 26.8086L122.572 16.3504H124.431L126.523 24.6955Z" fill="#222222"></path></svg> 