<?xml version="1.0" encoding="UTF-8"?> <svg xmlns="http://www.w3.org/2000/svg" width="35" height="44" viewBox="0 0 35 44" fill="none"><path fill-rule="evenodd" clip-rule="evenodd" d="M14.6064 16.9483L12.4262 29.1343H22.7713C25.1485 29.1343 26.7644 30.3075 26.5144 32.8187C26.0004 37.7573 18.5352 37.7643 16.6651 33.1497L9.91916 36.7866C14.7558 47.5997 32.636 46.1122 34.1039 33.2908C34.7897 26.8759 30.643 21.7654 24.0228 21.7654H21.5199L22.3467 17.2304H34.2045L34.9545 10.1451C27.1136 10.1451 19.2727 10.1451 11.4318 10.1451C11.841 7.7205 13.51 6.61853 16.4388 6.8392L17.619 0.0374104C13.8396 -0.183264 10.8326 0.572336 8.59651 2.30421C6.36184 4.03608 4.94422 6.65065 4.34644 10.1451H1.18158L0 16.9483H3.16486L1.0084 29.1343H8.09371L10.2502 16.9483H14.6064Z" fill="#313131"></path></svg> 