<?xml version="1.0" encoding="UTF-8"?> <svg xmlns="http://www.w3.org/2000/svg" width="25" height="25" viewBox="0 0 25 25" fill="none"><path d="M18.4184 14.4104C18.1594 14.6614 18.0404 15.0244 18.0994 15.3804L18.9884 20.3004C19.0634 20.7174 18.8874 21.1394 18.5384 21.3804C18.1964 21.6304 17.7414 21.6604 17.3684 21.4604L12.9394 19.1504C12.7854 19.0684 12.6144 19.0244 12.4394 19.0194H12.1684C12.0744 19.0334 11.9824 19.0634 11.8984 19.1094L7.46839 21.4304C7.24939 21.5404 7.00139 21.5794 6.75839 21.5404C6.16639 21.4284 5.77139 20.8644 5.86839 20.2694L6.75839 15.3494C6.81739 14.9904 6.69839 14.6254 6.43939 14.3704L2.82839 10.8704C2.52639 10.5774 2.42139 10.1374 2.55939 9.74042C2.69339 9.34442 3.03539 9.05542 3.44839 8.99042L8.41839 8.26942C8.79639 8.23042 9.12839 8.00042 9.29839 7.66042L11.4884 3.17042C11.5404 3.07042 11.6074 2.97842 11.6884 2.90042L11.7784 2.83042C11.8254 2.77842 11.8794 2.73542 11.9394 2.70042L12.0484 2.66042L12.2184 2.59042H12.6394C13.0154 2.62942 13.3464 2.85442 13.5194 3.19042L15.7384 7.66042C15.8984 7.98742 16.2094 8.21442 16.5684 8.26942L21.5384 8.99042C21.9584 9.05042 22.3094 9.34042 22.4484 9.74042C22.5794 10.1414 22.4664 10.5814 22.1584 10.8704L18.4184 14.4104Z" fill="#FCD752"></path></svg> 