<?xml version="1.0" encoding="UTF-8"?> <svg xmlns="http://www.w3.org/2000/svg" width="25" height="25" viewBox="0 0 25 25" fill="none"><path d="M12.52 2.82227C18.2 2.82227 22.5 7.47925 22.5 12.8072C22.5 18.9865 17.46 22.8223 12.5 22.8223C10.86 22.8223 9.04 22.3816 7.58 21.5203C7.07 21.2098 6.64 20.9795 6.09 21.1598L4.07 21.7607C3.56 21.9209 3.1 21.5203 3.25 20.9795L3.92 18.7361C4.03 18.4257 4.01 18.0952 3.85 17.8348C2.99 16.2524 2.5 14.5198 2.5 12.8373C2.5 7.56939 6.71 2.82227 12.52 2.82227ZM17.09 11.5654C16.38 11.5654 15.81 12.1362 15.81 12.8473C15.81 13.5484 16.38 14.1292 17.09 14.1292C17.8 14.1292 18.37 13.5484 18.37 12.8473C18.37 12.1362 17.8 11.5654 17.09 11.5654ZM12.48 11.5654C11.78 11.5554 11.2 12.1362 11.2 12.8373C11.2 13.5484 11.77 14.1192 12.48 14.1292C13.19 14.1292 13.76 13.5484 13.76 12.8473C13.76 12.1362 13.19 11.5654 12.48 11.5654ZM7.87 11.5654C7.16 11.5654 6.59 12.1362 6.59 12.8473C6.59 13.5484 7.17 14.1292 7.87 14.1292C8.58 14.1192 9.15 13.5484 9.15 12.8473C9.15 12.1362 8.58 11.5654 7.87 11.5654Z" fill="#2F2F2F"></path></svg> 